<svg version="1.1" id="Layer_1" xmlns="http://www.w3.org/2000/svg" xmlns:xlink="http://www.w3.org/1999/xlink" x="0px" y="0px"
	 width="100%" viewBox="0 0 280 107" enable-background="new 0 0 280 107" xml:space="preserve">
<path fill="#000000" opacity="1.000000" stroke="none" 
	d="
M1.000000,53.000000 
	C1.000000,35.676582 1.000000,18.353165 0.999998,1.022311 
	C94.270020,1.014874 187.540039,1.014874 280.905029,1.014874 
	C280.905029,36.582726 280.905029,72.165794 280.905029,107.874428 
	C187.666779,107.874428 94.333420,107.874428 1.000000,107.874428 
	C1.000000,92.920181 1.000000,77.928749 1.326377,62.223045 
	C2.399083,64.199791 2.985284,66.947762 3.918765,69.572212 
	C8.582904,82.685280 27.135805,92.504944 39.218334,89.193222 
	C45.248314,87.540436 50.985661,84.820007 56.794651,82.605644 
	C55.865242,80.451797 55.348923,79.255257 54.825020,77.754272 
	C54.223866,76.919250 53.630299,76.388695 53.006660,75.639496 
	C52.976593,75.420860 52.839191,75.001404 52.846085,74.736168 
	C52.569557,74.273697 52.286140,74.076462 52.009254,73.931274 
	C52.015789,73.983315 52.119873,73.970230 52.052994,73.643326 
	C51.326389,72.474167 50.666672,71.631905 49.941906,70.588196 
	C49.707001,70.132965 49.469742,69.995628 49.048859,69.752472 
	C48.593685,69.669266 48.254738,69.808319 47.944115,69.959579 
	C47.972435,69.971786 47.971649,69.910118 47.657883,70.040848 
	C45.555153,71.428436 43.766186,72.685287 41.588589,73.986893 
	C39.013588,74.633034 36.726585,75.985062 34.658020,75.707741 
	C24.939550,74.404854 14.754850,66.831421 16.995789,53.866280 
	C18.914171,42.767303 31.689453,36.043056 41.782314,40.966377 
	C44.361240,42.224384 46.855797,43.655350 49.759392,45.204391 
	C51.338558,42.225769 52.694923,39.667400 54.291451,36.993469 
	C54.628510,36.559277 54.725399,36.240650 54.896278,35.725014 
	C54.970268,35.528011 55.035721,35.112251 55.326775,34.942970 
	C55.421032,33.805462 55.224239,32.837231 54.963387,31.658043 
	C54.732811,31.174788 54.490582,31.024542 54.019611,30.695885 
	C52.915291,29.888344 51.964005,29.381271 51.005127,28.928871 
	C50.997536,28.983541 51.106884,28.998709 51.015900,28.741539 
	C50.607159,28.372818 50.289406,28.261269 49.772301,28.086468 
	C49.572945,28.023218 49.156437,27.984573 48.961853,27.673748 
	C45.796776,26.304634 42.826279,25.246344 39.407173,24.127289 
	C36.498169,24.052593 34.010536,23.797245 31.582602,24.071115 
	C24.951029,24.819160 18.705193,26.578947 14.007884,32.295959 
	C8.509242,38.172115 1.962824,43.057568 2.775713,52.155685 
	C2.795972,52.382427 1.618736,52.716164 1.000000,53.000000 
M254.867340,64.375481 
	C253.743332,64.302498 252.619308,64.229507 251.253494,64.239349 
	C251.253494,64.239349 251.167816,64.480164 250.565735,65.012802 
	C250.385818,72.463226 250.142944,79.913422 250.115387,87.364410 
	C250.112366,88.183441 251.344177,89.007042 252.856125,89.966286 
	C257.624420,90.774628 259.695679,88.912796 259.067963,83.985847 
	C258.796478,81.854980 258.982574,79.659775 259.031250,77.495384 
	C259.137115,72.787926 260.476196,72.054153 265.044983,74.976662 
	C265.033508,78.086136 264.801575,81.216415 265.092346,84.297363 
	C265.269775,86.177383 266.251526,87.981483 267.755951,89.973503 
	C274.947174,90.025597 275.051361,90.023064 274.883026,83.106148 
	C274.795135,79.493355 274.539795,75.840042 273.876892,72.295395 
	C272.609070,65.515923 262.957672,61.457592 256.288361,64.980476 
	C255.867004,64.941818 255.445648,64.903152 255.025314,64.954567 
	C255.025314,64.954567 255.115387,64.953499 254.867340,64.375481 
M108.733803,25.228201 
	C108.733803,25.228201 108.528038,25.184572 107.986328,24.591053 
	C101.955963,24.702528 95.925598,24.814001 88.977364,24.983948 
	C85.481628,24.989561 81.984619,24.936655 78.490425,25.012880 
	C71.050011,25.175190 62.168846,31.622499 59.870026,38.112770 
	C56.230225,48.389023 63.420612,62.900711 75.758514,63.980698 
	C81.337318,64.469032 86.937897,64.728928 92.532913,65.004623 
	C96.323112,65.191376 97.283257,67.508331 96.969284,70.730576 
	C96.678940,73.710327 95.305672,75.221939 91.903618,75.126701 
	C83.254654,74.884590 74.591118,74.887634 65.944092,75.147743 
	C64.640594,75.186943 62.477684,77.007233 62.312950,78.220894 
	C61.972260,80.730896 62.957359,83.388977 62.938774,85.982872 
	C62.916798,89.049820 64.192093,90.074097 67.141357,90.035461 
	C75.463242,89.926437 83.791367,90.141289 92.108597,89.916245 
	C94.846390,89.842155 98.087769,89.550430 100.164604,88.058060 
	C103.752907,85.479576 106.838837,82.077789 109.723137,78.672150 
	C114.342644,73.217636 111.770309,60.411007 106.095634,55.909752 
	C98.465523,49.857403 89.785225,49.516644 80.826324,50.050674 
	C77.486191,50.249783 75.104210,48.809299 74.211182,46.010891 
	C73.171959,42.754398 75.448891,40.846420 79.259338,39.917023 
	C87.846046,39.883114 96.432762,39.849205 105.794281,39.968079 
	C107.155762,38.992466 109.643532,38.055267 109.678345,37.034397 
	C109.809738,33.182400 109.143799,29.303205 108.733803,25.228201 
M183.025879,31.614208 
	C183.006668,32.044067 182.987457,32.473927 182.164474,32.984573 
	C176.572067,33.235615 172.011902,36.410946 171.341446,40.525528 
	C171.631165,40.656467 171.920731,40.901642 172.210648,40.902084 
	C196.312790,40.939064 220.415024,40.977299 244.516998,40.916782 
	C245.727341,40.913746 246.935516,40.044025 248.144684,39.577850 
	C248.238892,38.881454 248.333084,38.185059 248.427277,37.488667 
	C244.316025,35.981728 240.204788,34.474789 235.963547,32.393444 
	C235.681427,31.934597 235.399307,31.475748 234.875381,30.427910 
	C233.908096,29.673920 232.940796,28.919930 231.437119,27.892460 
	C231.234436,27.550474 231.031769,27.208487 230.621017,26.193077 
	C228.400162,25.524422 226.179291,24.855766 223.506744,24.069597 
	C223.506744,24.069597 223.048370,24.157555 222.357712,24.026001 
	C221.893158,24.070011 221.428604,24.114021 220.040115,24.032717 
	C212.037125,24.079359 204.034134,24.126003 195.238373,24.048088 
	C193.166351,24.958977 191.094315,25.869865 188.282654,26.957987 
	C187.496246,27.612389 186.709854,28.266788 185.358154,29.166368 
	C184.626663,29.771620 183.895172,30.376871 183.025879,31.614208 
M211.740738,67.750404 
	C211.516998,74.471375 211.238968,81.191681 211.157486,87.914383 
	C211.149734,88.553741 212.371918,89.208008 213.904434,89.971558 
	C215.807205,89.971558 217.709991,89.971558 219.979324,89.971558 
	C219.979324,82.068710 220.117432,74.833122 219.846237,67.612907 
	C219.799911,66.379372 218.177246,64.460159 216.976776,64.182922 
	C214.990936,63.724312 212.041733,63.182869 211.740738,67.750404 
M206.566010,64.156204 
	C202.261032,63.816933 197.956070,63.477661 192.851791,63.072582 
	C188.602951,63.960941 185.802322,66.467804 185.072525,70.760017 
	C184.314056,75.220840 186.009064,78.690521 189.371552,80.979408 
	C187.967545,81.626884 186.563538,82.274353 185.025787,83.809456 
	C185.025787,85.725899 185.025787,87.642334 185.025787,89.985336 
	C190.832886,89.985336 195.956604,90.221741 201.048462,89.920082 
	C206.338028,89.606720 209.245621,85.963272 208.991547,80.701256 
	C208.750504,75.709290 205.712158,73.036285 200.228668,73.000702 
	C198.666840,72.990562 197.104858,72.999153 195.542953,72.999153 
	C198.049942,72.023079 200.518845,72.059082 202.986343,72.015617 
	C208.211807,71.923592 209.104156,70.291954 206.566010,64.156204 
M134.974792,33.104073 
	C136.787903,29.824722 136.534531,25.375875 133.557068,24.656898 
	C129.428879,23.660049 124.675667,25.251535 120.043793,26.695852 
	C120.034416,38.788784 119.974258,50.881962 120.032471,62.974571 
	C120.075455,71.902351 120.272812,80.829399 120.867363,90.194275 
	C124.836235,90.436958 128.803665,90.729584 132.776230,90.843750 
	C133.166168,90.854958 133.587601,89.770020 134.693237,88.651314 
	C134.734238,70.389099 134.775238,52.126881 134.974792,33.104073 
M174.500000,55.998825 
	C206.172974,55.998825 237.845947,55.998825 269.518921,55.998825 
	C269.635834,55.442886 269.752747,54.886951 269.869659,54.331013 
	C265.939056,51.387325 262.137451,48.244091 258.023163,45.584560 
	C255.980957,44.264446 253.369049,43.124020 251.006821,43.108238 
	C225.030457,42.934719 199.032181,43.594406 173.084839,42.709290 
	C162.515778,42.348759 158.083740,50.965656 149.837646,53.431301 
	C149.941467,54.204758 150.045288,54.978210 150.149109,55.751667 
	C157.932755,55.835007 165.716385,55.918343 174.500000,55.998825 
M231.735046,89.023689 
	C236.301529,90.919327 240.272232,90.331596 243.878082,86.671555 
	C248.551071,81.928337 249.306458,76.978409 246.027252,69.764801 
	C243.980835,65.263062 238.612656,62.020397 232.559708,63.806061 
	C228.885605,64.889954 224.626862,68.614105 223.314423,72.148636 
	C220.298538,80.270721 222.199722,83.151405 231.735046,89.023689 
M148.831802,63.999111 
	C146.527267,63.910656 144.790329,64.155235 146.032593,67.269768 
	C147.151703,70.075508 147.881683,73.034416 148.945557,75.864761 
	C150.198685,79.198601 151.983109,82.376198 152.851593,85.795662 
	C153.418625,88.028244 153.244827,90.099190 156.377197,90.002075 
	C159.308990,89.911186 162.549683,90.712547 163.926590,86.936745 
	C166.055511,81.098686 168.203629,75.265984 170.199478,69.382126 
	C170.737000,67.797462 170.753799,66.036171 171.011246,64.345299 
	C162.751282,63.387798 162.784760,63.397564 160.675018,70.630936 
	C160.264221,72.039368 159.480637,73.339081 158.775711,74.894814 
	C155.470917,71.004532 157.386292,63.449574 148.831802,63.999111 
M178.404510,89.987160 
	C179.844788,89.127823 182.513275,88.290726 182.529312,87.405609 
	C182.648163,80.841850 182.146729,74.270058 182.040359,67.697548 
	C181.994476,64.861076 180.751602,63.931648 178.080902,63.962997 
	C175.571991,63.992439 173.928711,64.520638 173.976913,67.523529 
	C174.077972,73.818535 173.825302,80.126785 174.177612,86.403793 
	C174.248062,87.659065 176.367462,88.799339 178.404510,89.987160 
z"/>
<path fill="#0673BA" opacity="1.000000" stroke="none" 
	d="
M52.839191,75.001404 
	C52.839191,75.001404 52.976593,75.420860 53.123962,75.905281 
	C53.791756,76.946045 54.312180,77.502388 54.832603,78.058723 
	C55.348923,79.255257 55.865242,80.451797 56.794651,82.605644 
	C50.985661,84.820007 45.248314,87.540436 39.218334,89.193222 
	C27.135805,92.504944 8.582904,82.685280 3.918765,69.572212 
	C2.985284,66.947762 2.399083,64.199791 1.326377,61.754387 
	C1.000000,59.299988 1.000000,56.599972 1.000000,53.449982 
	C1.618736,52.716164 2.795972,52.382427 2.775713,52.155685 
	C1.962824,43.057568 8.509242,38.172115 14.359587,32.245880 
	C22.126717,28.208570 29.531811,25.070160 38.371685,25.943703 
	C42.237637,26.656431 45.697037,27.320501 49.156437,27.984573 
	C49.156437,27.984573 49.572945,28.023218 49.952751,28.240112 
	C50.581646,28.650467 50.839756,28.831036 51.106884,28.998709 
	C51.106884,28.998709 50.997536,28.983541 51.181301,29.210827 
	C52.300922,29.957525 53.236782,30.476940 54.172642,30.996353 
	C54.490582,31.024542 54.732811,31.174788 54.955505,32.064598 
	C55.019688,33.492153 55.027702,34.302200 55.035721,35.112251 
	C55.035721,35.112251 54.970268,35.528011 54.760986,35.801495 
	C54.384899,36.419662 54.218094,36.764347 54.051285,37.109032 
	C52.694923,39.667400 51.338558,42.225769 49.759392,45.204391 
	C46.855797,43.655350 44.361240,42.224384 41.782314,40.966377 
	C31.689453,36.043056 18.914171,42.767303 16.995789,53.866280 
	C14.754850,66.831421 24.939550,74.404854 34.658020,75.707741 
	C36.726585,75.985062 39.013588,74.633034 41.863358,74.088928 
	C44.341724,72.734161 46.156689,71.322144 47.971649,69.910118 
	C47.971649,69.910118 47.972435,69.971786 48.256332,69.972717 
	C48.748516,69.974014 48.956799,69.974380 49.165085,69.974739 
	C49.469742,69.995628 49.707001,70.132965 50.000854,70.921005 
	C50.789856,72.293594 51.454865,73.131912 52.119873,73.970230 
	C52.119873,73.970230 52.015789,73.983315 52.141563,74.124420 
	C52.446877,74.519417 52.637497,74.764717 52.839191,75.001404 
z"/>
<path fill="#0573BB" opacity="1.000000" stroke="none" 
	d="
M78.397446,39.811165 
	C75.448891,40.846420 73.171959,42.754398 74.211182,46.010891 
	C75.104210,48.809299 77.486191,50.249783 80.826324,50.050674 
	C89.785225,49.516644 98.465523,49.857403 106.095634,55.909752 
	C111.770309,60.411007 114.342644,73.217636 109.723137,78.672150 
	C106.838837,82.077789 103.752907,85.479576 100.164604,88.058060 
	C98.087769,89.550430 94.846390,89.842155 92.108597,89.916245 
	C83.791367,90.141289 75.463242,89.926437 67.141357,90.035461 
	C64.192093,90.074097 62.916798,89.049820 62.938774,85.982872 
	C62.957359,83.388977 61.972260,80.730896 62.312950,78.220894 
	C62.477684,77.007233 64.640594,75.186943 65.944092,75.147743 
	C74.591118,74.887634 83.254654,74.884590 91.903618,75.126701 
	C95.305672,75.221939 96.678940,73.710327 96.969284,70.730576 
	C97.283257,67.508331 96.323112,65.191376 92.532913,65.004623 
	C86.937897,64.728928 81.337318,64.469032 75.758514,63.980698 
	C63.420612,62.900711 56.230225,48.389023 59.870026,38.112770 
	C62.168846,31.622499 71.050011,25.175190 78.490425,25.012880 
	C81.984619,24.936655 85.481628,24.989561 89.817749,25.127151 
	C96.614761,25.241760 102.571404,25.213165 108.528038,25.184572 
	C108.528038,25.184572 108.733803,25.228201 108.637161,25.822601 
	C108.009186,30.298502 107.477844,34.180000 106.483017,38.016457 
	C98.316856,37.950153 90.611984,37.827389 82.913391,37.994331 
	C81.395660,38.027245 79.902138,39.176659 78.397446,39.811165 
z"/>
<path fill="#0472BB" opacity="1.000000" stroke="none" 
	d="
M174.000015,56.000252 
	C165.716385,55.918343 157.932755,55.835007 150.149109,55.751667 
	C150.045288,54.978210 149.941467,54.204758 149.837646,53.431301 
	C158.083740,50.965656 162.515778,42.348759 173.084839,42.709290 
	C199.032181,43.594406 225.030457,42.934719 251.006821,43.108238 
	C253.369049,43.124020 255.980957,44.264446 258.023163,45.584560 
	C262.137451,48.244091 265.939056,51.387325 269.869659,54.331013 
	C269.752747,54.886951 269.635834,55.442886 269.518921,55.998825 
	C237.845947,55.998825 206.172974,55.998825 174.000015,56.000252 
z"/>
<path fill="#0472BA" opacity="1.000000" stroke="none" 
	d="
M120.401390,89.756775 
	C120.272812,80.829399 120.075455,71.902351 120.032471,62.974571 
	C119.974258,50.881962 120.034416,38.788784 120.567657,26.277050 
	C133.125290,26.622349 133.125290,26.622349 134.816238,33.864662 
	C134.775238,52.126881 134.734238,70.389099 133.888519,88.833977 
	C128.856323,89.263351 124.628860,89.510063 120.401390,89.756775 
z"/>
<path fill="#0673BC" opacity="1.000000" stroke="none" 
	d="
M236.093536,32.967850 
	C240.204788,34.474789 244.316025,35.981728 248.427277,37.488667 
	C248.333084,38.185059 248.238892,38.881454 248.144684,39.577850 
	C246.935516,40.044025 245.727341,40.913746 244.516998,40.916782 
	C220.415024,40.977299 196.312790,40.939064 172.210648,40.902084 
	C171.920731,40.901642 171.631165,40.656467 171.342987,40.522125 
	C172.011902,36.410946 176.572067,33.235615 182.982117,32.980076 
	C185.192581,32.974548 186.585434,32.973515 188.447937,32.993134 
	C199.559967,33.011833 210.202332,33.013760 220.844681,33.006268 
	C225.927628,33.002686 231.010590,32.981220 236.093536,32.967850 
z"/>
<path fill="#0672BA" opacity="1.000000" stroke="none" 
	d="
M190.123032,80.827103 
	C186.009064,78.690521 184.314056,75.220840 185.072525,70.760017 
	C185.802322,66.467804 188.602951,63.960941 193.318817,63.450584 
	C198.181641,64.156342 202.577438,64.484093 206.973251,64.811852 
	C209.104156,70.291954 208.211807,71.923592 202.986343,72.015617 
	C200.518845,72.059082 198.049942,72.023079 195.542953,72.999153 
	C197.104858,72.999153 198.666840,72.990562 200.228668,73.000702 
	C205.712158,73.036285 208.750504,75.709290 208.991547,80.701256 
	C209.245621,85.963272 206.338028,89.606720 201.048462,89.920082 
	C195.956604,90.221741 190.832886,89.985336 185.025787,89.985336 
	C185.025787,87.642334 185.025787,85.725899 185.547272,83.385010 
	C190.101028,82.960556 194.133301,82.960556 198.165588,82.960556 
	C198.181885,82.440277 198.198196,81.919998 198.214493,81.399719 
	C195.517334,81.208847 192.820190,81.017975 190.123032,80.827103 
z"/>
<path fill="#0671B9" opacity="1.000000" stroke="none" 
	d="
M231.332367,88.978012 
	C222.199722,83.151405 220.298538,80.270721 223.314423,72.148636 
	C224.626862,68.614105 228.885605,64.889954 232.559708,63.806061 
	C238.612656,62.020397 243.980835,65.263062 246.027252,69.764801 
	C249.306458,76.978409 248.551071,81.928337 243.878082,86.671555 
	C240.272232,90.331596 236.301529,90.919327 231.332367,88.978012 
M231.769333,79.466782 
	C233.198227,80.120659 234.716217,81.463333 236.038452,81.292336 
	C239.302322,80.870216 239.744400,77.997002 238.895630,75.595879 
	C238.382828,74.145271 236.169342,72.154419 234.959579,72.306915 
	C231.413361,72.753937 230.135834,75.311348 231.769333,79.466782 
z"/>
<path fill="#0571BA" opacity="1.000000" stroke="none" 
	d="
M256.922974,64.974930 
	C262.957672,61.457592 272.609070,65.515923 273.876892,72.295395 
	C274.539795,75.840042 274.795135,79.493355 274.883026,83.106148 
	C275.051361,90.023064 274.947174,90.025597 267.339478,89.442368 
	C266.345093,83.963158 265.767151,79.015083 265.189178,74.067009 
	C260.476196,72.054153 259.137115,72.787926 259.031250,77.495384 
	C258.982574,79.659775 258.796478,81.854980 259.067963,83.985847 
	C259.695679,88.912796 257.624420,90.774628 252.425400,89.439667 
	C251.719055,80.768761 251.443436,72.624458 251.167816,64.480164 
	C251.167816,64.480164 251.253494,64.239349 251.813873,64.351166 
	C253.287949,64.626495 254.201675,64.789993 255.115387,64.953499 
	C255.115387,64.953499 255.025314,64.954567 255.111145,65.110786 
	C255.635376,65.540825 256.073761,65.814636 256.512177,66.088455 
	C256.649109,65.717278 256.786041,65.346100 256.922974,64.974930 
z"/>
<path fill="#0672BA" opacity="1.000000" stroke="none" 
	d="
M149.232971,63.998848 
	C157.386292,63.449574 155.470917,71.004532 158.775711,74.894814 
	C159.480637,73.339081 160.264221,72.039368 160.675018,70.630936 
	C162.784760,63.397564 162.751282,63.387798 171.011246,64.345299 
	C170.753799,66.036171 170.737000,67.797462 170.199478,69.382126 
	C168.203629,75.265984 166.055511,81.098686 163.926590,86.936745 
	C162.549683,90.712547 159.308990,89.911186 156.377197,90.002075 
	C153.244827,90.099190 153.418625,88.028244 152.851593,85.795662 
	C151.983109,82.376198 150.198685,79.198601 148.945557,75.864761 
	C147.881683,73.034416 147.151703,70.075508 146.032593,67.269768 
	C144.790329,64.155235 146.527267,63.910656 149.232971,63.998848 
z"/>
<path fill="#0472BA" opacity="1.000000" stroke="none" 
	d="
M177.973297,89.989899 
	C176.367462,88.799339 174.248062,87.659065 174.177612,86.403793 
	C173.825302,80.126785 174.077972,73.818535 173.976913,67.523529 
	C173.928711,64.520638 175.571991,63.992439 178.080902,63.962997 
	C180.751602,63.931648 181.994476,64.861076 182.040359,67.697548 
	C182.146729,74.270058 182.648163,80.841850 182.529312,87.405609 
	C182.513275,88.290726 179.844788,89.127823 177.973297,89.989899 
z"/>
<path fill="#0471BA" opacity="1.000000" stroke="none" 
	d="
M212.160248,67.001595 
	C212.041733,63.182869 214.990936,63.724312 216.976776,64.182922 
	C218.177246,64.460159 219.799911,66.379372 219.846237,67.612907 
	C220.117432,74.833122 219.979324,82.068710 219.979324,89.971558 
	C217.709991,89.971558 215.807205,89.971558 213.459961,89.454071 
	C212.730392,81.624924 212.445312,74.313255 212.160248,67.001595 
z"/>
<path fill="#0B74BA" opacity="1.000000" stroke="none" 
	d="
M189.022293,26.780754 
	C191.094315,25.869865 193.166351,24.958977 196.019226,24.249699 
	C204.854752,24.353548 212.909393,24.255791 220.964050,24.158031 
	C221.428604,24.114021 221.893158,24.070011 222.816025,24.109348 
	C223.274338,24.192694 223.616165,24.212509 223.616165,24.212509 
	C223.616165,24.212509 223.958435,24.187115 223.958435,24.187115 
	C226.179291,24.855766 228.400162,25.524422 230.329697,26.639744 
	C223.018356,27.407888 215.998322,27.729368 208.566101,28.027023 
	C201.776703,27.595718 195.399490,27.188236 189.022293,26.780754 
z"/>
<path fill="#0573BB" opacity="1.000000" stroke="none" 
	d="
M231.973511,28.165941 
	C232.940796,28.919930 233.908096,29.673920 234.651428,30.883144 
	C227.885925,31.262157 221.344391,31.185938 214.352753,31.100777 
	C203.656311,31.055267 193.410004,31.018696 183.163681,30.982124 
	C183.895172,30.376871 184.626663,29.771620 186.111649,29.087849 
	C194.229889,28.959745 201.594650,28.910160 209.430573,28.896446 
	C217.259003,28.676861 224.616257,28.421402 231.973511,28.165941 
z"/>
<path fill="#307CC6" opacity="1.000000" stroke="none" 
	d="
M214.802856,31.109718 
	C221.344391,31.185938 227.885925,31.262157 234.772324,31.177639 
	C235.399307,31.475748 235.681427,31.934597 236.028534,32.680649 
	C231.010590,32.981220 225.927628,33.002686 220.844681,33.006268 
	C210.202332,33.013760 199.559967,33.011833 188.821609,32.814384 
	C191.840347,32.404053 194.953461,32.163857 198.070221,31.988590 
	C203.646606,31.675009 209.225189,31.400537 214.802856,31.109718 
z"/>
<path fill="#598FC6" opacity="1.000000" stroke="none" 
	d="
M78.828392,39.864094 
	C79.902138,39.176659 81.395660,38.027245 82.913391,37.994331 
	C90.611984,37.827389 98.316856,37.950153 106.327881,38.227974 
	C106.097305,38.928123 105.558388,39.371708 105.019470,39.815292 
	C96.432762,39.849205 87.846046,39.883114 78.828392,39.864094 
z"/>
<path fill="#2F7BBF" opacity="1.000000" stroke="none" 
	d="
M37.965134,25.895046 
	C29.531811,25.070160 22.126717,28.208570 14.510492,31.938898 
	C18.705193,26.578947 24.951029,24.819160 31.582602,24.071115 
	C34.010536,23.797245 36.498169,24.052593 39.226494,24.305325 
	C38.984657,24.994432 38.474895,25.444740 37.965134,25.895046 
z"/>
<path fill="#206DBC" opacity="1.000000" stroke="none" 
	d="
M250.866776,64.746483 
	C251.443436,72.624458 251.719055,80.768761 251.998962,89.370789 
	C251.344177,89.007042 250.112366,88.183441 250.115387,87.364410 
	C250.142944,79.913422 250.385818,72.463226 250.866776,64.746483 
z"/>
<path fill="#146DBA" opacity="1.000000" stroke="none" 
	d="
M211.950485,67.375999 
	C212.445312,74.313255 212.730392,81.624924 213.019287,89.395966 
	C212.371918,89.208008 211.149734,88.553741 211.157486,87.914383 
	C211.238968,81.191681 211.516998,74.471375 211.950485,67.375999 
z"/>
<path fill="#3786C6" opacity="1.000000" stroke="none" 
	d="
M134.895508,33.484367 
	C133.125290,26.622349 133.125290,26.622349 120.640793,25.796532 
	C124.675667,25.251535 129.428879,23.660049 133.557068,24.656898 
	C136.534531,25.375875 136.787903,29.824722 134.895508,33.484367 
z"/>
<path fill="#4086C5" opacity="1.000000" stroke="none" 
	d="
M208.959396,28.860573 
	C201.594650,28.910160 194.229889,28.959745 186.394302,28.965260 
	C186.709854,28.266788 187.496246,27.612389 188.652466,26.869370 
	C195.399490,27.188236 201.776703,27.595718 208.562134,28.229271 
	C208.970367,28.455339 208.959396,28.860575 208.959396,28.860573 
z"/>
<path fill="#5388C6" opacity="1.000000" stroke="none" 
	d="
M214.352753,31.100779 
	C209.225189,31.400537 203.646606,31.675009 198.070221,31.988590 
	C194.953461,32.163857 191.840347,32.404053 188.351929,32.793739 
	C186.585434,32.973515 185.192581,32.974548 183.384003,32.939682 
	C182.987457,32.473927 183.006668,32.044067 183.094788,31.298168 
	C193.410004,31.018696 203.656311,31.055267 214.352753,31.100779 
z"/>
<path fill="#3282C0" opacity="1.000000" stroke="none" 
	d="
M108.257187,24.887814 
	C102.571404,25.213165 96.614761,25.241760 90.276680,25.097916 
	C95.925598,24.814001 101.955963,24.702528 108.257187,24.887814 
z"/>
<path fill="#3884C3" opacity="1.000000" stroke="none" 
	d="
M265.117065,74.521835 
	C265.767151,79.015083 266.345093,83.963158 266.897522,89.365456 
	C266.251526,87.981483 265.269775,86.177383 265.092346,84.297363 
	C264.801575,81.216415 265.033508,78.086136 265.117065,74.521835 
z"/>
<path fill="#3379BF" opacity="1.000000" stroke="none" 
	d="
M189.747284,80.903259 
	C192.820190,81.017975 195.517334,81.208847 198.214493,81.399719 
	C198.198196,81.919998 198.181885,82.440277 198.165588,82.960556 
	C194.133301,82.960556 190.101028,82.960556 185.614136,82.941193 
	C186.563538,82.274353 187.967545,81.626884 189.747284,80.903259 
z"/>
<path fill="#3282C0" opacity="1.000000" stroke="none" 
	d="
M105.406876,39.891685 
	C105.558388,39.371708 106.097305,38.928123 106.791367,38.273018 
	C107.477844,34.180000 108.009186,30.298502 108.658432,25.925596 
	C109.143799,29.303205 109.809738,33.182400 109.678345,37.034397 
	C109.643532,38.055267 107.155762,38.992466 105.406876,39.891685 
z"/>
<path fill="#6EA3CD" opacity="1.000000" stroke="none" 
	d="
M120.634377,89.975525 
	C124.628860,89.510063 128.856323,89.263351 133.539108,89.105255 
	C133.587601,89.770020 133.166168,90.854958 132.776230,90.843750 
	C128.803665,90.729584 124.836235,90.436958 120.634377,89.975525 
z"/>
<path fill="#6396CD" opacity="1.000000" stroke="none" 
	d="
M206.769623,64.484024 
	C202.577438,64.484093 198.181641,64.156342 193.718460,63.483490 
	C197.956070,63.477661 202.261032,63.816933 206.769623,64.484024 
z"/>
<path fill="#357FC3" opacity="1.000000" stroke="none" 
	d="
M209.430573,28.896446 
	C208.959396,28.860575 208.970367,28.455339 208.974335,28.253094 
	C215.998322,27.729368 223.018356,27.407888 230.433731,26.976456 
	C231.031769,27.208487 231.234436,27.550474 231.705322,28.029202 
	C224.616257,28.421402 217.259003,28.676861 209.430573,28.896446 
z"/>
<path fill="#007EC0" opacity="1.000000" stroke="none" 
	d="
M220.502075,24.095375 
	C212.909393,24.255791 204.854752,24.353548 196.415619,24.311977 
	C204.034134,24.126003 212.037125,24.079359 220.502075,24.095375 
z"/>
<path fill="#1B75BC" opacity="1.000000" stroke="none" 
	d="
M38.371685,25.943703 
	C38.474895,25.444740 38.984657,24.994432 39.675102,24.366089 
	C42.826279,25.246344 45.796776,26.304634 48.961853,27.673748 
	C45.697037,27.320501 42.237637,26.656431 38.371685,25.943703 
z"/>
<path fill="#1B71BB" opacity="1.000000" stroke="none" 
	d="
M47.657883,70.040848 
	C46.156689,71.322144 44.341724,72.734161 42.251991,74.044159 
	C43.766186,72.685287 45.555153,71.428436 47.657883,70.040848 
z"/>
<path fill="#1B71BB" opacity="1.000000" stroke="none" 
	d="
M52.052994,73.643326 
	C51.454865,73.131912 50.789856,72.293594 50.065903,71.122467 
	C50.666672,71.631905 51.326389,72.474167 52.052994,73.643326 
z"/>
<path fill="#206DBC" opacity="1.000000" stroke="none" 
	d="
M256.605652,64.977707 
	C256.786041,65.346100 256.649109,65.717278 256.512177,66.088455 
	C256.073761,65.814636 255.635376,65.540825 255.110626,65.065750 
	C255.445648,64.903152 255.867004,64.941818 256.605652,64.977707 
z"/>
<path fill="#206DBC" opacity="1.000000" stroke="none" 
	d="
M254.991364,64.664490 
	C254.201675,64.789993 253.287949,64.626495 251.934769,64.309753 
	C252.619308,64.229507 253.743332,64.302498 254.991364,64.664490 
z"/>
<path fill="#1B75BC" opacity="1.000000" stroke="none" 
	d="
M54.019611,30.695887 
	C53.236782,30.476940 52.300922,29.957525 51.188892,29.156155 
	C51.964005,29.381271 52.915291,29.888344 54.019611,30.695887 
z"/>
<path fill="#1B75BC" opacity="1.000000" stroke="none" 
	d="
M55.326775,34.942970 
	C55.027702,34.302200 55.019688,33.492153 55.019558,32.275551 
	C55.224239,32.837231 55.421032,33.805462 55.326775,34.942970 
z"/>
<path fill="#1B71BB" opacity="1.000000" stroke="none" 
	d="
M54.825020,77.754272 
	C54.312180,77.502388 53.791756,76.946045 53.154034,76.123917 
	C53.630299,76.388695 54.223866,76.919250 54.825020,77.754272 
z"/>
<path fill="#1B75BC" opacity="1.000000" stroke="none" 
	d="
M54.291451,36.993469 
	C54.218094,36.764347 54.384899,36.419662 54.686996,35.998497 
	C54.725399,36.240650 54.628510,36.559277 54.291451,36.993469 
z"/>
<path fill="#1B71BB" opacity="1.000000" stroke="none" 
	d="
M49.048859,69.752472 
	C48.956799,69.974380 48.748516,69.974014 48.228012,69.960518 
	C48.254738,69.808319 48.593685,69.669266 49.048859,69.752472 
z"/>
<path fill="#007EC0" opacity="1.000000" stroke="none" 
	d="
M223.732590,24.128357 
	C223.958435,24.187115 223.616165,24.212509 223.616165,24.212509 
	C223.616165,24.212509 223.274338,24.192694 223.161346,24.175125 
	C223.048370,24.157555 223.506744,24.069597 223.732590,24.128357 
z"/>
<path fill="#1B71BB" opacity="1.000000" stroke="none" 
	d="
M52.846085,74.736168 
	C52.637497,74.764717 52.446877,74.519417 52.135033,74.072372 
	C52.286140,74.076462 52.569557,74.273697 52.846085,74.736168 
z"/>
<path fill="#1B75BC" opacity="1.000000" stroke="none" 
	d="
M51.015900,28.741539 
	C50.839756,28.831036 50.581646,28.650467 50.152103,28.303362 
	C50.289406,28.261269 50.607159,28.372818 51.015900,28.741539 
z"/>
<path fill="#000000" opacity="1.000000" stroke="none" 
	d="
M231.534821,79.152504 
	C230.135834,75.311348 231.413361,72.753937 234.959579,72.306915 
	C236.169342,72.154419 238.382828,74.145271 238.895630,75.595879 
	C239.744400,77.997002 239.302322,80.870216 236.038452,81.292336 
	C234.716217,81.463333 233.198227,80.120659 231.534821,79.152504 
z"/>
</svg>