<svg version="1.1" id="Layer_1" xmlns="http://www.w3.org/2000/svg" xmlns:xlink="http://www.w3.org/1999/xlink" x="0px" y="0px"
	 width="100%" viewBox="0 0 265 190" enable-background="new 0 0 265 190" xml:space="preserve">
<path fill="#FDFDFE" opacity="1.000000" stroke="none" 
	d="
M79.000000,1.000000 
	C104.687561,1.000000 130.375122,1.000000 156.357544,1.343994 
	C154.376129,2.159096 152.037704,2.433882 149.833206,3.131725 
	C128.174438,9.987869 112.698471,22.700293 108.529762,46.379097 
	C106.743889,56.523075 104.380920,66.564812 102.320969,76.661339 
	C99.171524,92.097870 96.057419,107.541618 92.791809,123.655876 
	C96.542465,123.655876 99.813911,123.717644 103.082108,123.641045 
	C107.705811,123.532669 113.707069,125.010796 116.560295,122.679131 
	C119.398308,120.359894 119.149841,114.185730 120.118118,109.672615 
	C122.229813,99.830032 124.254677,89.968803 126.289062,80.239349 
	C141.518677,80.239349 156.143753,80.239349 170.998795,80.239349 
	C170.799789,81.601440 170.681854,82.738304 170.463165,83.855446 
	C167.974258,96.569572 165.469940,109.280685 162.927460,122.315201 
	C163.261673,122.776123 163.638199,122.914452 164.474243,123.148560 
	C171.952698,123.175575 178.971649,123.106819 186.284439,123.043839 
	C186.705734,122.703209 186.833206,122.356789 187.123505,121.656319 
	C192.606537,95.311066 197.931976,69.320946 203.245270,43.328327 
	C207.096176,24.489649 198.227051,9.300751 179.904800,3.429684 
	C176.977585,2.491705 173.970276,1.803614 171.000000,0.999999 
	C187.354233,1.000000 203.708450,1.000000 220.516602,1.385278 
	C219.186905,8.567388 217.403305,15.364219 215.451248,22.803009 
	C219.557404,22.803009 222.658127,22.803009 226.028107,22.803009 
	C225.912369,24.384148 225.952423,25.528421 225.730545,26.619429 
	C221.029694,49.732422 216.160202,72.812538 211.686188,95.969124 
	C210.733826,100.898422 209.137070,103.342812 203.741287,102.540611 
	C202.324371,102.329964 199.547577,103.649025 199.255463,104.756325 
	C197.654694,110.824364 196.632828,117.045128 195.350494,123.524826 
	C210.678299,123.524826 225.604599,123.524826 241.062042,123.524826 
	C242.435440,116.723991 243.823502,109.850578 245.363663,102.223953 
	C241.296265,102.223953 238.238831,102.223953 234.811966,102.223953 
	C240.330551,75.313423 245.717880,49.043053 251.154480,22.532310 
	C255.110703,22.532310 258.382965,22.532310 261.469116,22.532310 
	C263.046631,16.079912 264.523315,10.039958 266.000000,4.000002 
	C266.000000,66.291794 266.000000,128.583588 266.000000,190.937683 
	C177.767120,190.937683 89.534172,190.937683 1.150615,190.937683 
	C1.150615,127.666939 1.150615,64.333511 1.150615,1.000000 
	C6.734736,1.000000 12.397659,1.000000 18.641495,1.412669 
	C18.529320,5.414966 17.860401,9.009461 17.138420,12.593268 
	C15.301951,21.709234 15.292743,21.701323 24.380560,22.142662 
	C24.808802,22.163462 25.223770,22.457582 25.787649,22.680954 
	C21.977137,41.328880 18.143356,59.872414 14.408992,78.435944 
	C11.492911,92.931786 8.700283,107.452454 5.813126,122.305519 
	C6.186347,122.780861 6.599239,122.912773 7.471224,123.143707 
	C14.952749,123.165596 21.975185,123.088470 29.275673,123.015732 
	C29.662479,122.688972 29.771233,122.357834 30.002945,121.644379 
	C33.463112,105.222771 36.800323,89.183479 40.188293,72.900215 
	C45.999447,72.900215 51.482548,73.127289 56.941391,72.859627 
	C77.092247,71.871605 93.386513,63.846710 102.970551,45.468090 
	C112.388969,27.407091 103.963181,8.682599 84.458923,2.802042 
	C82.624901,2.249080 80.818970,1.602901 79.000000,1.000000 
M76.592674,138.276184 
	C76.510048,139.210205 76.427429,140.144211 76.271332,142.001755 
	C76.370056,153.678024 76.468781,165.354294 76.503517,177.569061 
	C76.997711,177.696854 77.491913,177.824661 79.273056,178.113174 
	C80.909500,177.781723 82.545944,177.450256 84.246849,177.135391 
	C84.433304,177.138168 84.619049,177.133789 85.729713,177.936722 
	C87.547798,178.008179 89.366478,178.152832 91.183868,178.138229 
	C98.422478,178.080109 102.253304,175.746765 103.632324,170.628845 
	C105.316422,164.378662 103.644112,160.636032 97.391716,156.662415 
	C101.935730,153.049744 103.359650,148.786591 101.570587,143.868561 
	C100.075317,139.758118 96.789192,137.905518 92.705696,137.949570 
	C87.801300,138.002472 82.902977,138.618744 77.525993,138.797562 
	C77.357925,138.764526 77.189850,138.731506 76.592674,138.276184 
M6.095507,177.734451 
	C7.162411,177.461151 8.229315,177.187836 9.526984,175.901535 
	C8.852157,174.813782 8.177329,173.726028 7.502501,172.638275 
	C6.965694,174.083725 6.428887,175.529175 6.095507,177.734451 
M66.894623,138.218842 
	C65.826256,138.519150 64.757889,138.819458 63.440697,140.015488 
	C63.442020,146.487808 63.359058,152.962372 63.532734,159.430069 
	C63.559742,160.435989 64.758698,161.410431 65.415726,162.399429 
	C66.019875,161.404816 67.131493,160.417679 67.146263,159.414368 
	C67.246368,152.616898 67.114777,145.816010 66.894623,138.218842 
M134.542343,177.965179 
	C134.639313,177.656052 134.736282,177.346939 134.952576,176.151260 
	C133.559326,175.697586 132.176849,174.896164 130.770889,174.852646 
	C125.663673,174.694550 120.548607,174.790268 114.910179,174.790268 
	C114.910179,163.897293 114.950897,153.475754 114.868782,143.055176 
	C114.855583,141.381943 114.293732,139.713043 113.267471,137.818497 
	C112.524582,138.210785 111.781685,138.603073 110.876427,139.921188 
	C110.938484,152.285568 111.000542,164.649948 111.034348,177.570419 
	C111.350868,177.692245 111.667389,177.814072 112.908234,178.115982 
	C119.943825,178.054596 126.979408,177.993210 134.542343,177.965179 
M42.076340,138.189636 
	C41.039822,138.462982 40.003307,138.736343 38.780216,139.930298 
	C38.813934,148.753738 38.538555,157.592331 38.970245,166.396255 
	C39.383389,174.821823 45.605534,179.577606 54.380539,178.937363 
	C62.316677,178.358322 67.669029,172.425461 67.111504,164.607574 
	C67.038284,163.580811 66.012665,162.621964 65.428146,161.631668 
	C64.655121,162.527618 63.683308,163.324371 63.171185,164.350540 
	C62.752193,165.190079 62.976398,166.325287 62.751568,167.291275 
	C61.511471,172.619217 58.227745,175.154068 52.746758,175.083466 
	C47.427013,175.014954 44.080856,172.242157 43.186943,166.805222 
	C42.784714,164.358795 42.842800,161.828995 42.786285,159.334885 
	C42.632038,152.528061 42.527946,145.720108 42.076340,138.189636 
M242.366623,137.924927 
	C242.219681,138.289841 242.072754,138.654755 241.754318,139.941544 
	C241.811478,152.288666 241.868637,164.635773 241.899719,177.598923 
	C242.263306,177.718750 242.626892,177.838562 243.880600,178.113617 
	C245.472260,178.113617 247.063919,178.113617 248.714661,178.113617 
	C248.714661,164.376663 248.714661,151.176605 248.714661,137.942291 
	C246.633804,137.942291 244.823761,137.942291 242.366623,137.924927 
M5.676107,139.959656 
	C5.662366,146.770447 5.559261,153.583099 5.699502,160.390717 
	C5.733363,162.034363 6.572098,163.661423 7.040706,165.296112 
	C8.037148,164.437881 8.945003,163.429291 10.060044,162.772339 
	C10.851047,162.306305 11.916738,162.173523 12.868679,162.139465 
	C15.357522,162.050354 17.853895,162.168564 20.342470,162.075668 
	C26.678562,161.839127 31.158504,158.178146 32.032047,152.612915 
	C33.198639,145.180725 30.731794,140.793243 23.501148,138.041748 
	C23.501148,138.041748 23.026936,138.095245 22.119808,137.836411 
	C17.089170,137.863831 12.058533,137.891266 6.364383,137.923004 
	C6.202936,138.297455 6.041490,138.671906 5.676107,139.959656 
M228.148285,157.306763 
	C226.312836,152.326569 224.391312,147.375732 222.678696,142.353653 
	C221.836945,139.885300 220.756088,138.557053 217.772644,138.620239 
	C214.789948,138.683426 213.388077,139.653946 212.398911,142.475281 
	C208.777466,152.804550 204.871674,163.033890 201.115280,173.316330 
	C200.655838,174.573914 200.452606,175.925095 199.929916,178.048248 
	C203.901459,176.829086 207.969757,178.138290 208.595810,173.070740 
	C209.227783,167.955490 212.243454,166.901199 217.184204,166.861481 
	C222.485474,166.818863 225.672989,168.036819 226.458008,173.525681 
	C226.550278,174.170807 226.693344,175.143021 227.114410,175.349945 
	C229.131561,176.341125 231.252548,177.121017 233.336639,177.975998 
	C233.569107,176.294815 234.389557,174.427704 233.927429,172.966141 
	C232.330048,167.914215 230.285843,163.003571 228.148285,157.306763 
M160.557755,138.776871 
	C158.255142,142.073486 155.029037,145.083725 153.894440,148.742554 
	C152.609756,152.885406 152.927277,157.616867 153.040573,162.079895 
	C153.209061,168.716812 155.085266,174.861511 161.867371,177.558075 
	C169.005325,180.396103 175.805801,179.169144 182.216171,174.070404 
	C181.229965,172.886887 180.455002,171.956863 179.759460,171.122162 
	C178.167603,172.088882 176.948944,172.992111 175.602097,173.620651 
	C166.312241,177.955795 157.823578,173.006149 157.087509,162.801636 
	C156.896240,160.149902 156.925735,157.474533 156.990784,154.813354 
	C157.289795,142.578644 165.440552,137.462753 176.593933,142.733475 
	C179.444199,144.080414 180.313858,143.410385 180.887085,140.677002 
	C174.542221,136.591141 168.092957,135.713577 160.557755,138.776871 
M144.954956,164.490952 
	C144.954575,156.665054 144.866241,148.837677 144.998535,141.014023 
	C145.049088,138.024155 144.059372,137.098495 141.187469,138.177780 
	C141.187469,151.488480 141.187469,164.726456 141.187469,177.964447 
	C141.668213,178.189758 142.148956,178.415070 142.629700,178.640381 
	C143.404419,177.419708 144.713577,176.254730 144.847794,174.967270 
	C145.174088,171.837585 144.954590,168.651016 144.954956,164.490952 
z"/>
<path fill="#4A5B77" opacity="1.000000" stroke="none" 
	d="
M185.990616,123.038063 
	C178.971649,123.106819 171.952698,123.175575 164.366669,122.913177 
	C163.522995,122.385551 163.246384,122.189079 162.969772,121.992607 
	C165.469940,109.280685 167.974258,96.569572 170.463165,83.855446 
	C170.681854,82.738304 170.799789,81.601440 170.998795,80.239349 
	C156.143753,80.239349 141.518677,80.239349 126.289062,80.239349 
	C124.254677,89.968803 122.229813,99.830032 120.118118,109.672615 
	C119.149841,114.185730 119.398308,120.359894 116.560295,122.679131 
	C113.707069,125.010796 107.705811,123.532669 103.082108,123.641045 
	C99.813911,123.717644 96.542465,123.655876 92.791809,123.655876 
	C96.057419,107.541618 99.171524,92.097870 102.320969,76.661339 
	C104.380920,66.564812 106.743889,56.523075 108.529762,46.379097 
	C112.698471,22.700293 128.174438,9.987869 149.833206,3.131725 
	C152.037704,2.433882 154.376129,2.159096 156.826202,1.343994 
	C161.356903,1.000000 165.713806,1.000000 170.535355,0.999999 
	C173.970276,1.803614 176.977585,2.491705 179.904800,3.429684 
	C198.227051,9.300751 207.096176,24.489649 203.245270,43.328327 
	C197.931976,69.320946 192.606537,95.311066 186.904587,121.766319 
	C186.258484,122.442291 186.081055,122.711517 185.990616,123.038063 
M138.347549,32.943001 
	C132.433609,40.452988 133.108139,49.829407 130.560944,58.646744 
	C145.866577,58.646744 160.611465,58.646744 175.629028,58.646744 
	C176.785385,52.798790 178.126846,47.158817 178.978699,41.445843 
	C180.351639,32.238163 175.335159,25.030100 166.223068,23.086166 
	C155.312485,20.758549 146.306290,24.416660 138.347549,32.943001 
z"/>
<path fill="#4A5B77" opacity="1.000000" stroke="none" 
	d="
M5.852797,121.962090 
	C8.700283,107.452454 11.492911,92.931786 14.408992,78.435944 
	C18.143356,59.872414 21.977137,41.328880 25.787649,22.680954 
	C25.223770,22.457582 24.808802,22.163462 24.380560,22.142662 
	C15.292743,21.701323 15.301951,21.709234 17.138420,12.593268 
	C17.860401,9.009461 18.529320,5.414966 19.111202,1.412669 
	C38.687561,1.000000 58.375122,1.000000 78.531342,1.000000 
	C80.818970,1.602901 82.624901,2.249080 84.458923,2.802042 
	C103.963181,8.682599 112.388969,27.407091 102.970551,45.468090 
	C93.386513,63.846710 77.092247,71.871605 56.941391,72.859627 
	C51.482548,73.127289 45.999447,72.900215 40.188293,72.900215 
	C36.800323,89.183479 33.463112,105.222771 29.804031,121.756088 
	C29.244814,122.455574 29.083302,122.709328 28.997620,123.011353 
	C21.975185,123.088470 14.952749,123.165596 7.344973,122.899918 
	C6.457352,122.358772 6.155074,122.160431 5.852797,121.962090 
M63.388031,22.071581 
	C59.114902,22.071581 54.841778,22.071581 50.417183,22.071581 
	C48.380470,32.414566 46.449154,42.222332 44.432915,52.461327 
	C53.943756,53.252197 62.312206,52.558414 70.227280,49.551670 
	C78.092575,46.563847 83.019875,38.418373 81.607918,32.142666 
	C80.112938,25.497969 74.508347,22.132212 64.837830,22.071806 
	C64.671753,22.070770 64.505653,22.071636 63.388031,22.071581 
z"/>
<path fill="#4B5C78" opacity="1.000000" stroke="none" 
	d="
M266.000000,3.666669 
	C264.523315,10.039958 263.046631,16.079912 261.469116,22.532310 
	C258.382965,22.532310 255.110703,22.532310 251.154480,22.532310 
	C245.717880,49.043053 240.330551,75.313423 234.811966,102.223953 
	C238.238831,102.223953 241.296265,102.223953 245.363663,102.223953 
	C243.823502,109.850578 242.435440,116.723991 241.062042,123.524826 
	C225.604599,123.524826 210.678299,123.524826 195.350494,123.524826 
	C196.632828,117.045128 197.654694,110.824364 199.255463,104.756325 
	C199.547577,103.649025 202.324371,102.329964 203.741287,102.540611 
	C209.137070,103.342812 210.733826,100.898422 211.686188,95.969124 
	C216.160202,72.812538 221.029694,49.732422 225.730545,26.619429 
	C225.952423,25.528421 225.912369,24.384148 226.028107,22.803009 
	C222.658127,22.803009 219.557404,22.803009 215.451248,22.803009 
	C217.403305,15.364219 219.186905,8.567388 220.985260,1.385278 
	C224.030594,1.000000 227.061188,1.000000 230.832153,1.305869 
	C239.393158,1.719795 247.213776,1.827852 255.487030,1.988783 
	C259.293121,2.027771 262.646545,2.013886 266.000000,2.000000 
	C266.000000,2.444444 266.000000,2.888889 266.000000,3.666669 
z"/>
<path fill="#758195" opacity="1.000000" stroke="none" 
	d="
M255.034393,1.935910 
	C247.213776,1.827852 239.393158,1.719795 231.286270,1.305869 
	C238.687576,1.000000 246.375168,1.000000 254.532181,1.234264 
	C255.001617,1.468528 255.034393,1.935910 255.034393,1.935910 
z"/>
<path fill="#8C95A6" opacity="1.000000" stroke="none" 
	d="
M255.487030,1.988783 
	C255.034393,1.935910 255.001617,1.468528 255.000809,1.234264 
	C258.666656,1.000000 262.333344,1.000000 266.000000,1.500000 
	C262.646545,2.013886 259.293121,2.027771 255.487030,1.988783 
z"/>
<path fill="#4C5D78" opacity="1.000000" stroke="none" 
	d="
M228.280014,157.672943 
	C230.285843,163.003571 232.330048,167.914215 233.927429,172.966141 
	C234.389557,174.427704 233.569107,176.294815 233.336639,177.975983 
	C231.252548,177.121017 229.131561,176.341125 227.114410,175.349945 
	C226.693344,175.143021 226.550278,174.170807 226.458008,173.525681 
	C225.672989,168.036819 222.485474,166.818863 217.184204,166.861481 
	C212.243454,166.901199 209.227783,167.955490 208.595810,173.070740 
	C207.969757,178.138290 203.901459,176.829086 199.929916,178.048248 
	C200.452606,175.925095 200.655838,174.573914 201.115280,173.316330 
	C204.871674,163.033890 208.777466,152.804550 212.398911,142.475281 
	C213.388077,139.653946 214.789948,138.683426 217.772644,138.620239 
	C220.756088,138.557053 221.836945,139.885300 222.678696,142.353653 
	C224.391312,147.375732 226.312836,152.326569 228.280014,157.672943 
M219.181412,161.012283 
	C220.001373,160.944366 220.821335,160.876465 222.037506,160.775726 
	C220.547852,156.340073 219.129868,152.117828 217.420227,147.027115 
	C215.722610,152.172577 214.337769,156.370010 212.805908,161.013062 
	C215.028290,161.013062 216.679260,161.013062 219.181412,161.012283 
z"/>
<path fill="#4E5E7A" opacity="1.000000" stroke="none" 
	d="
M76.567505,177.030563 
	C76.468781,165.354294 76.370056,153.678024 76.486343,141.392273 
	C76.861282,140.517105 76.993713,140.238342 77.301888,139.844788 
	C77.744553,139.541199 77.910187,139.290527 78.002029,138.991089 
	C82.902977,138.618744 87.801300,138.002472 92.705696,137.949570 
	C96.789192,137.905518 100.075317,139.758118 101.570587,143.868561 
	C103.359650,148.786591 101.935730,153.049744 97.391716,156.662415 
	C103.644112,160.636032 105.316422,164.378662 103.632324,170.628845 
	C102.253304,175.746765 98.422478,178.080109 91.183868,178.138229 
	C89.366478,178.152832 87.547798,178.008179 85.688408,177.092834 
	C88.695900,175.546860 91.753624,174.881058 94.791336,174.133896 
	C98.963936,173.107574 100.081291,170.098877 99.991356,166.193985 
	C99.901489,162.292053 98.048508,159.589081 94.260048,159.220001 
	C89.716461,158.777344 85.096817,159.115417 80.150169,159.115417 
	C80.150169,163.155075 80.420570,166.814682 80.072952,170.414627 
	C79.735641,173.907898 81.107994,175.928421 84.182388,177.118805 
	C82.545944,177.450256 80.909500,177.781723 78.530197,177.828400 
	C77.380730,177.372604 76.974121,177.201584 76.567505,177.030563 
M94.475151,154.459793 
	C98.715927,152.669601 98.887413,148.763336 97.625618,145.637222 
	C96.809380,143.614960 93.685654,141.808685 91.300529,141.305313 
	C87.854362,140.577988 84.140465,141.119217 80.479446,141.119217 
	C80.479446,146.028824 80.479446,150.423325 80.479446,154.781494 
	C85.090034,154.781494 89.383263,154.781494 94.475151,154.459793 
z"/>
<path fill="#4F5F7B" opacity="1.000000" stroke="none" 
	d="
M160.890381,138.572632 
	C168.092957,135.713577 174.542221,136.591141 180.887085,140.677002 
	C180.313858,143.410385 179.444199,144.080414 176.593933,142.733475 
	C165.440552,137.462753 157.289795,142.578644 156.990784,154.813354 
	C156.925735,157.474533 156.896240,160.149902 157.087509,162.801636 
	C157.823578,173.006149 166.312241,177.955795 175.602097,173.620651 
	C176.948944,172.992111 178.167603,172.088882 179.759460,171.122162 
	C180.455002,171.956863 181.229965,172.886887 182.216171,174.070404 
	C175.805801,179.169144 169.005325,180.396103 161.867371,177.558075 
	C155.085266,174.861511 153.209061,168.716812 153.040573,162.079895 
	C152.927277,157.616867 152.609756,152.885406 153.894440,148.742554 
	C155.029037,145.083725 158.255142,142.073486 160.890381,138.572632 
z"/>
<path fill="#F7F8F9" opacity="1.000000" stroke="none" 
	d="
M84.214615,177.127106 
	C81.107994,175.928421 79.735641,173.907898 80.072952,170.414627 
	C80.420570,166.814682 80.150169,163.155075 80.150169,159.115417 
	C85.096817,159.115417 89.716461,158.777344 94.260048,159.220001 
	C98.048508,159.589081 99.901489,162.292053 99.991356,166.193985 
	C100.081291,170.098877 98.963936,173.107574 94.791336,174.133896 
	C91.753624,174.881058 88.695900,175.546860 85.225601,176.685577 
	C84.619049,177.133789 84.433304,177.138168 84.214615,177.127106 
z"/>
<path fill="#54647E" opacity="1.000000" stroke="none" 
	d="
M23.942091,138.224258 
	C30.731794,140.793243 33.198639,145.180725 32.032047,152.612915 
	C31.158504,158.178146 26.678562,161.839127 20.342470,162.075668 
	C17.853895,162.168564 15.357522,162.050354 12.868679,162.139465 
	C11.916738,162.173523 10.851047,162.306305 10.060044,162.772339 
	C8.945003,163.429291 8.037148,164.437881 7.040705,165.296112 
	C6.572098,163.661423 5.733363,162.034363 5.699502,160.390717 
	C5.559261,153.583099 5.662366,146.770447 6.035127,139.389832 
	C6.605397,138.519577 6.816647,138.219131 7.027895,137.918701 
	C12.058533,137.891266 17.089170,137.863831 22.640413,138.121338 
	C23.421377,138.345612 23.681734,138.284943 23.942091,138.224258 
M25.982056,143.579102 
	C21.012268,139.557404 15.380610,141.495224 9.694643,141.056015 
	C9.694643,144.609009 9.694643,147.422684 9.694643,150.236359 
	C9.694643,152.971466 9.694643,155.706573 9.694643,158.591812 
	C13.190039,158.591812 15.835511,158.726578 18.463148,158.567230 
	C27.331860,158.029434 30.457355,152.396744 25.982056,143.579102 
z"/>
<path fill="#4A5B77" opacity="1.000000" stroke="none" 
	d="
M241.925797,176.982880 
	C241.868637,164.635773 241.811478,152.288666 242.081177,139.368591 
	C242.609940,138.511200 242.811829,138.226746 243.013718,137.942291 
	C244.823761,137.942291 246.633804,137.942291 248.714661,137.942291 
	C248.714661,151.176605 248.714661,164.376663 248.714661,178.113617 
	C247.063919,178.113617 245.472260,178.113617 243.321732,177.812546 
	C242.483841,177.335281 242.204819,177.159088 241.925797,176.982880 
z"/>
<path fill="#5B6A83" opacity="1.000000" stroke="none" 
	d="
M42.403988,138.912598 
	C42.527946,145.720108 42.632038,152.528061 42.786285,159.334885 
	C42.842800,161.828995 42.784714,164.358795 43.186943,166.805222 
	C44.080856,172.242157 47.427013,175.014954 52.746758,175.083466 
	C58.227745,175.154068 61.511471,172.619217 62.751568,167.291275 
	C62.976398,166.325287 62.752193,165.190079 63.171185,164.350540 
	C63.683308,163.324371 64.655121,162.527618 65.428146,161.631668 
	C66.012665,162.621964 67.038284,163.580811 67.111504,164.607574 
	C67.669029,172.425461 62.316677,178.358322 54.380539,178.937363 
	C45.605534,179.577606 39.383389,174.821823 38.970245,166.396255 
	C38.538555,157.592331 38.813934,148.753738 39.303158,139.486786 
	C40.685394,138.999710 41.544693,138.956161 42.403988,138.912598 
z"/>
<path fill="#4B5C78" opacity="1.000000" stroke="none" 
	d="
M113.985512,138.042145 
	C114.293732,139.713043 114.855583,141.381943 114.868782,143.055176 
	C114.950897,153.475754 114.910179,163.897293 114.910179,174.790268 
	C120.548607,174.790268 125.663673,174.694550 130.770889,174.852646 
	C132.176849,174.896164 133.559326,175.697586 134.708405,176.694153 
	C134.238586,177.419556 134.088852,177.651154 134.014999,177.931824 
	C126.979408,177.993210 119.943825,178.054596 112.349274,177.821716 
	C111.606873,177.272568 111.364296,177.101532 111.062599,177.014328 
	C111.000542,164.649948 110.938484,152.285568 111.288345,139.464722 
	C112.462013,138.686218 113.223763,138.364182 113.985512,138.042145 
z"/>
<path fill="#475875" opacity="1.000000" stroke="none" 
	d="
M144.954956,164.989151 
	C144.954590,168.651016 145.174088,171.837585 144.847794,174.967270 
	C144.713577,176.254730 143.404419,177.419708 142.629700,178.640381 
	C142.148956,178.415070 141.668213,178.189758 141.187469,177.964447 
	C141.187469,164.726456 141.187469,151.488480 141.187469,138.177780 
	C144.059372,137.098495 145.049088,138.024155 144.998535,141.014023 
	C144.866241,148.837677 144.954575,156.665054 144.954956,164.989151 
z"/>
<path fill="#5B6A83" opacity="1.000000" stroke="none" 
	d="
M67.058083,139.016235 
	C67.114777,145.816010 67.246368,152.616898 67.146263,159.414368 
	C67.131493,160.417679 66.019875,161.404816 65.415726,162.399429 
	C64.758698,161.410431 63.559742,160.435989 63.532734,159.430069 
	C63.359058,152.962372 63.442020,146.487808 63.987785,139.549133 
	C65.375946,139.060593 66.217010,139.038406 67.058083,139.016235 
z"/>
<path fill="#54647E" opacity="1.000000" stroke="none" 
	d="
M5.892080,176.974625 
	C6.428887,175.529175 6.965694,174.083725 7.502501,172.638275 
	C8.177329,173.726028 8.852157,174.813782 8.984760,176.423279 
	C7.592384,176.954895 6.742232,176.964767 5.892080,176.974625 
z"/>
<path fill="#3C506E" opacity="1.000000" stroke="none" 
	d="
M66.976349,138.617523 
	C66.217010,139.038406 65.375946,139.060593 64.112198,139.101257 
	C64.757889,138.819458 65.826256,138.519150 66.976349,138.617523 
z"/>
<path fill="#394D6D" opacity="1.000000" stroke="none" 
	d="
M113.626495,137.930328 
	C113.223763,138.364182 112.462013,138.686218 111.369522,139.001801 
	C111.781685,138.603073 112.524582,138.210785 113.626495,137.930328 
z"/>
<path fill="#394D6D" opacity="1.000000" stroke="none" 
	d="
M42.240166,138.551117 
	C41.544693,138.956161 40.685394,138.999710 39.396446,139.026474 
	C40.003307,138.736343 41.039822,138.462982 42.240166,138.551117 
z"/>
<path fill="#8C95A6" opacity="1.000000" stroke="none" 
	d="
M77.098640,139.946503 
	C76.993713,140.238342 76.861282,140.517105 76.523079,140.930511 
	C76.427429,140.144211 76.510048,139.210205 76.835205,138.798889 
	C77.084717,139.529892 77.091682,139.738205 77.098640,139.946503 
z"/>
<path fill="#3C506E" opacity="1.000000" stroke="none" 
	d="
M5.993794,177.354538 
	C6.742232,176.964767 7.592384,176.954895 8.869377,176.929779 
	C8.229315,177.187836 7.162411,177.461151 5.993794,177.354538 
z"/>
<path fill="#3C506E" opacity="1.000000" stroke="none" 
	d="
M76.535507,177.299805 
	C76.974121,177.201584 77.380730,177.372604 77.886719,177.748047 
	C77.491913,177.824661 76.997711,177.696854 76.535507,177.299805 
z"/>
<path fill="#3C506E" opacity="1.000000" stroke="none" 
	d="
M241.912750,177.290894 
	C242.204819,177.159088 242.483841,177.335281 242.876678,177.734924 
	C242.626892,177.838562 242.263306,177.718750 241.912750,177.290894 
z"/>
<path fill="#394D6D" opacity="1.000000" stroke="none" 
	d="
M134.278671,177.948486 
	C134.088852,177.651154 134.238586,177.419556 134.648743,177.137421 
	C134.736282,177.346939 134.639313,177.656052 134.278671,177.948486 
z"/>
<path fill="#394D6D" opacity="1.000000" stroke="none" 
	d="
M111.048477,177.292374 
	C111.364296,177.101532 111.606873,177.272568 111.887115,177.731659 
	C111.667389,177.814072 111.350868,177.692245 111.048477,177.292374 
z"/>
<path fill="#3C506E" opacity="1.000000" stroke="none" 
	d="
M5.813125,122.305519 
	C6.155074,122.160431 6.457352,122.358772 6.885881,122.800903 
	C6.599239,122.912773 6.186347,122.780861 5.813125,122.305519 
z"/>
<path fill="#3C506E" opacity="1.000000" stroke="none" 
	d="
M29.275673,123.015732 
	C29.083302,122.709328 29.244814,122.455574 29.681072,122.138405 
	C29.771233,122.357834 29.662479,122.688972 29.275673,123.015732 
z"/>
<path fill="#394D6D" opacity="1.000000" stroke="none" 
	d="
M162.927460,122.315201 
	C163.246384,122.189079 163.522995,122.385551 163.907166,122.817398 
	C163.638199,122.914452 163.261673,122.776123 162.927460,122.315201 
z"/>
<path fill="#394D6D" opacity="1.000000" stroke="none" 
	d="
M186.284439,123.043839 
	C186.081055,122.711517 186.258484,122.442291 186.741791,122.120377 
	C186.833206,122.356789 186.705734,122.703209 186.284439,123.043839 
z"/>
<path fill="#3C506E" opacity="1.000000" stroke="none" 
	d="
M6.696139,137.920853 
	C6.816647,138.219131 6.605397,138.519577 6.137095,138.933182 
	C6.041490,138.671906 6.202936,138.297455 6.696139,137.920853 
z"/>
<path fill="#3C506E" opacity="1.000000" stroke="none" 
	d="
M77.301888,139.844788 
	C77.091682,139.738205 77.084717,139.529892 77.049759,139.010025 
	C77.189850,138.731506 77.357925,138.764526 77.764008,138.894318 
	C77.910187,139.290527 77.744553,139.541199 77.301888,139.844788 
z"/>
<path fill="#3C506E" opacity="1.000000" stroke="none" 
	d="
M23.721619,138.132996 
	C23.681734,138.284943 23.421377,138.345612 23.093977,138.250763 
	C23.026936,138.095245 23.501148,138.041748 23.721619,138.132996 
z"/>
<path fill="#3C506E" opacity="1.000000" stroke="none" 
	d="
M242.690170,137.933609 
	C242.811829,138.226746 242.609940,138.511200 242.166931,138.907654 
	C242.072754,138.654755 242.219681,138.289841 242.690170,137.933609 
z"/>
<path fill="#FDFDFD" opacity="1.000000" stroke="none" 
	d="
M138.594345,32.675629 
	C146.306290,24.416660 155.312485,20.758549 166.223068,23.086166 
	C175.335159,25.030100 180.351639,32.238163 178.978699,41.445843 
	C178.126846,47.158817 176.785385,52.798790 175.629028,58.646744 
	C160.611465,58.646744 145.866577,58.646744 130.560944,58.646744 
	C133.108139,49.829407 132.433609,40.452988 138.594345,32.675629 
z"/>
<path fill="#FBFBFC" opacity="1.000000" stroke="none" 
	d="
M63.863800,22.071598 
	C64.505653,22.071636 64.671753,22.070770 64.837830,22.071806 
	C74.508347,22.132212 80.112938,25.497969 81.607918,32.142666 
	C83.019875,38.418373 78.092575,46.563847 70.227280,49.551670 
	C62.312206,52.558414 53.943756,53.252197 44.432915,52.461327 
	C46.449154,42.222332 48.380470,32.414566 50.417183,22.071581 
	C54.841778,22.071581 59.114902,22.071581 63.863800,22.071598 
z"/>
<path fill="#F7F8F9" opacity="1.000000" stroke="none" 
	d="
M218.755829,161.012665 
	C216.679260,161.013062 215.028290,161.013062 212.805908,161.013062 
	C214.337769,156.370010 215.722610,152.172577 217.420227,147.027115 
	C219.129868,152.117828 220.547852,156.340073 222.037506,160.775726 
	C220.821335,160.876465 220.001373,160.944366 218.755829,161.012665 
z"/>
<path fill="#FBFBFC" opacity="1.000000" stroke="none" 
	d="
M94.075821,154.620636 
	C89.383263,154.781494 85.090034,154.781494 80.479446,154.781494 
	C80.479446,150.423325 80.479446,146.028824 80.479446,141.119217 
	C84.140465,141.119217 87.854362,140.577988 91.300529,141.305313 
	C93.685654,141.808685 96.809380,143.614960 97.625618,145.637222 
	C98.887413,148.763336 98.715927,152.669601 94.075821,154.620636 
z"/>
<path fill="#FBFBFC" opacity="1.000000" stroke="none" 
	d="
M26.254261,143.878113 
	C30.457355,152.396744 27.331860,158.029434 18.463148,158.567230 
	C15.835511,158.726578 13.190039,158.591812 9.694643,158.591812 
	C9.694643,155.706573 9.694643,152.971466 9.694643,150.236359 
	C9.694643,147.422684 9.694643,144.609009 9.694643,141.056015 
	C15.380610,141.495224 21.012268,139.557404 26.254261,143.878113 
z"/>
</svg>