<?xml version="1.0" standalone="no"?>
<!DOCTYPE svg PUBLIC "-//W3C//DTD SVG 20010904//EN"
 "http://www.w3.org/TR/2001/REC-SVG-20010904/DTD/svg10.dtd">
<svg version="1.0" xmlns="http://www.w3.org/2000/svg"
 width="200.000000pt" height="200.000000pt" viewBox="0 0 200.000000 200.000000"
 preserveAspectRatio="xMidYMid meet">

<g transform="translate(0.000000,200.000000) scale(0.100000,-0.100000)"
fill="#7a2ee5" stroke="none">
<path d="M884 1696 c-49 -30 -196 -117 -326 -193 l-237 -138 -1 -386 0 -386
213 -125 c116 -69 265 -158 331 -197 l118 -72 97 55 c53 30 119 70 147 88 28
18 133 80 232 138 l181 105 1 391 0 392 -237 140 c-131 77 -276 163 -322 191
-46 28 -90 51 -96 51 -7 0 -52 -24 -101 -54z m186 -480 c-17 -75 -30 -140 -28
-145 1 -6 35 -45 75 -89 l71 -79 -159 -159 c-87 -87 -159 -152 -159 -144 1 8
16 77 34 152 l33 137 -79 78 -78 78 157 157 c86 86 159 155 161 153 2 -2 -10
-65 -28 -139z"/>
</g>
</svg>
